Coordinates
version=1
nRows=60
nColumns=12
inDegrees=yes

Units are S.I. units (second, meters, Newtons, ...)
Angles are in degrees

endheader
time	SC_y	SC_z	SC_x	AC_y	AC_z	AC_x	GH_y	GH_z	GH_yy	EL_x	PS_y
       0.0              -58.73          2.576          44.79          38.55         -18.83         -1.433         -136.7          60.27          -95.4          130.3          128.4
   0.03109              -58.72          2.579          44.79          38.56         -18.83         -1.433         -136.7          60.28         -95.39          130.3          128.4
   0.06218              -58.72          2.582          44.79          38.56         -18.82         -1.434         -136.7          60.28         -95.39          130.2          128.4
   0.09328              -58.72          2.586           44.8          38.56         -18.82         -1.434         -136.6          60.28         -95.39          130.2          128.4
    0.1244              -58.72           2.59           44.8          38.56         -18.81         -1.434         -136.6          60.28         -95.39          130.2          128.4
    0.1555              -58.72          2.594           44.8          38.56         -18.81         -1.434         -136.6          60.29         -95.38          130.2          128.4
    0.1866              -58.71          2.598          44.81          38.56          -18.8         -1.434         -136.6          60.29         -95.38          130.2          128.3
    0.2176              -58.71          2.603          44.81          38.56          -18.8         -1.435         -136.6          60.29         -95.37          130.2          128.3
    0.2487              -58.71          2.608          44.81          38.57         -18.79         -1.435         -136.5           60.3         -95.37          130.2          128.3
    0.2798               -58.7          2.613          44.82          38.57         -18.78         -1.435         -136.5           60.3         -95.37          130.2          128.3
    0.3109               -58.7          2.619          44.82          38.57         -18.78         -1.435         -136.5          60.31         -95.36          130.2          128.3
     0.342               -58.7          2.625          44.83          38.57         -18.77         -1.435         -136.5          60.31         -95.36          130.1          128.3
    0.3731              -58.69          2.631          44.83          38.57         -18.76         -1.436         -136.4          60.32         -95.35          130.1          128.3
    0.4042              -58.69          2.638          44.84          38.58         -18.75         -1.436         -136.4          60.32         -95.34          130.1          128.3
    0.4353              -58.68          2.646          44.84          38.58         -18.74         -1.436         -136.4          60.33         -95.34          130.1          128.2
    0.4664              -58.68          2.654          44.85          38.58         -18.73         -1.437         -136.3          60.34         -95.33          130.1          128.2
    0.4975              -58.67          2.664          44.86          38.58         -18.72         -1.437         -136.3          60.34         -95.32          130.0          128.2
    0.5286              -58.67          2.673          44.87          38.59          -18.7         -1.438         -136.3          60.35         -95.32          130.0          128.2
    0.5597              -58.66          2.684          44.88          38.59         -18.69         -1.438         -136.2          60.36         -95.31          130.0          128.1
    0.5908              -58.65          2.696          44.88          38.59         -18.67         -1.439         -136.2          60.37          -95.3          129.9          128.1
    0.6218              -58.64          2.709           44.9           38.6         -18.66         -1.439         -136.1          60.38         -95.29          129.9          128.1
    0.6529              -58.63          2.723          44.91           38.6         -18.64          -1.44         -136.0          60.39         -95.27          129.9          128.1
     0.684              -58.62          2.739          44.92          38.61         -18.62          -1.44         -136.0           60.4         -95.26          129.8          128.0
    0.7151              -58.61          2.757          44.93          38.61         -18.59         -1.441         -135.9          60.42         -95.25          129.8          128.0
    0.7462               -58.6          2.776          44.95          38.62         -18.57         -1.442         -135.8          60.43         -95.23          129.7          127.9
    0.7773              -58.59          2.798          44.97          38.63         -18.54         -1.443         -135.7          60.45         -95.21          129.7          127.9
    0.8084              -58.57          2.822          44.99          38.64         -18.51         -1.444         -135.6          60.47         -95.19          129.6          127.8
    0.8395              -58.56           2.85          45.01          38.65         -18.47         -1.445         -135.5          60.49         -95.17          129.5          127.8
    0.8706              -58.54          2.881          45.03          38.66         -18.43         -1.447         -135.4          60.51         -95.14          129.5          127.7
    0.9017              -58.51          2.916          45.06          38.67         -18.38         -1.448         -135.2          60.54         -95.11          129.4          127.6
    0.9328              -58.49          2.956          45.09          38.68         -18.33          -1.45         -135.0          60.57         -95.08          129.3          127.5
    0.9639              -58.46          3.002          45.13           38.7         -18.27         -1.452         -134.8          60.61         -95.04          129.2          127.4
     0.995              -58.43          3.055          45.17          38.71          -18.2         -1.454         -134.6          60.65          -95.0          129.0          127.3
     1.026              -58.39          3.116          45.22          38.73         -18.12         -1.457         -134.3           60.7         -94.94          128.9          127.1
     1.057              -58.34          3.189          45.28          38.76         -18.02          -1.46         -134.0          60.76         -94.88          128.7          127.0
     1.088              -58.29          3.274          45.35          38.79         -17.91         -1.464         -133.6          60.82         -94.81          128.4          126.8
     1.119              -58.23          3.375          45.43          38.82         -17.78         -1.468         -133.2           60.9         -94.73          128.2          126.5
      1.15              -58.15          3.496          45.52          38.86         -17.62         -1.473         -132.7           61.0         -94.63          127.9          126.2
     1.182              -58.06          3.643          45.64          38.91         -17.42          -1.48         -132.0          61.11          -94.5          127.5          125.9
     1.213              -57.95          3.822          45.78          38.97         -17.19         -1.488         -131.3          61.25         -94.35          127.0          125.5
     1.244              -57.81          4.043          45.96          39.04          -16.9         -1.497         -130.3          61.43         -94.17          126.4          125.0
     1.275              -57.64          4.319          46.18          39.13         -16.53         -1.509         -129.1          61.65         -93.94          125.7          124.3
     1.306              -57.42          4.666          46.46          39.24         -16.07         -1.524         -127.6          61.92         -93.65          124.8          123.5
     1.337              -57.14          5.107          46.81          39.39         -15.49         -1.544         -125.7          62.27         -93.28          123.7          122.5
     1.368              -56.79          5.673          47.26          39.58         -14.75         -1.568         -123.2          62.71          -92.8          122.2          121.2
     1.399              -56.33          6.398          47.84          39.82         -13.79           -1.6         -120.0          63.28          -92.2          120.3          119.5
      1.43              -55.75          7.324          48.58          40.12         -12.57          -1.64         -116.0          64.01         -91.42          117.9          117.3
     1.461              -55.02          8.489          49.52          40.51         -11.03         -1.691         -110.9          64.93         -90.44          114.9          114.6
     1.492              -54.13          9.908          50.65          40.97         -9.156         -1.753         -104.7          66.04         -89.25          111.2          111.2
     1.524               -53.1          11.55          51.97          41.52         -6.985         -1.825         -97.56          67.34         -87.88          106.9          107.4
     1.555              -51.99          13.33          53.39           42.1         -4.634         -1.903          -89.8          68.74         -86.38          102.3          103.2
     1.586              -50.87          15.12          54.81          42.69         -2.283          -1.98         -82.03          70.14         -84.89          97.64          99.06
     1.617              -49.84          16.76          56.13          43.24        -0.1118         -2.052         -74.86          71.44         -83.51          93.36          95.21
     1.648              -48.95          18.18          57.26           43.7          1.761         -2.114         -68.68          72.56         -82.32          89.67          91.88
     1.679              -48.22          19.35          58.19          44.09          3.298         -2.165          -63.6          73.47         -81.35          86.64          89.16
      1.71              -47.64          20.27          58.94          44.39          4.521         -2.205         -59.56           74.2         -80.57          84.23          86.99
     1.741              -47.19           21.0          59.51          44.63          5.478         -2.237          -56.4          74.77         -79.96          82.35          85.29
     1.772              -46.84          21.56          59.97          44.82          6.223         -2.261         -53.94          75.22         -79.49          80.88          83.97
     1.803              -46.56           22.0          60.32          44.97          6.806         -2.281         -52.01          75.56         -79.12          79.73          82.94
     1.834              -46.34          22.35           60.6          45.08          7.264         -2.296          -50.5          75.84         -78.83          78.83          82.13
